PathFileType	4	(X/Y/Z)	/Users/mathieubourgeois/Desktop/Analyse/Traitement/Sujet_08/Data/Transformed_Sujet_08_velo_60.trc
DataRate	CameraRate	NumFrames	NumMarkers	Units	OrigDataRate	OrigDataStartFrame	OrigNumFrames
120.000000	120.000000	4	35	mm	120.000000	699	1866
Frame#	Time	RFHD			RANE			STRN			LANI			LKNE			T10			RHUM			RWRB			C7			LFWT			LTOE			RTOE			LWRA			LBWT			RBWT			RFWT			LKNI			RKNI			RKNE			LANE			RANI			LHEE			LHUM			LRAD			RRAD			RWRA			LWRB			LFHD			LBHD			RBHD			RSHO			LSHO			CLAV			LCAR			RCAR			
		X1	Y1	Z1	X2	Y2	Z2	X3	Y3	Z3	X4	Y4	Z4	X5	Y5	Z5	X6	Y6	Z6	X7	Y7	Z7	X8	Y8	Z8	X9	Y9	Z9	X10	Y10	Z10	X11	Y11	Z11	X12	Y12	Z12	X13	Y13	Z13	X14	Y14	Z14	X15	Y15	Z15	X16	Y16	Z16	X17	Y17	Z17	X18	Y18	Z18	X19	Y19	Z19	X20	Y20	Z20	X21	Y21	Z21	X22	Y22	Z22	X23	Y23	Z23	X24	Y24	Z24	X25	Y25	Z25	X26	Y26	Z26	X27	Y27	Z27	X28	Y28	Z28	X29	Y29	Z29	X30	Y30	Z30	X31	Y31	Z31	X32	Y32	Z32	X33	Y33	Z33	X34	Y34	Z34	X35	Y35	Z35	

700	5.825	255.4461059570312	1406.360961914062	106.1790084838867	-226.9962158203125	610.0393676757812	170.7364654541015	-42.21257781982422	1168.861206054688	18.17550468444817	-116.7511901855469	287.4570922851562	-84.01727294921878	-86.94558715820311	699.1846313476562	-148.3883209228516	-203.2998199462891	1358.747924804688	19.22557067871083	151.5325469970703	1084.1484375	202.1353302001953	330.8515319824218	908.184814453125	251.7234344482422	28.90823936462402	1440.638671875	27.06374740600577	-254.1622467041016	1092.64013671875	-106.5958175659181	40.33444595336915	178.0869750976562	-120.9563980102539	-100.2484130859375	459.8236999511719	146.1474304199218	361.2268676757812	936.4076538085938	-171.9381561279297	-394.6379699707031	1152.508666992188	-40.41225814819348	-392.7809753417969	1155.0283203125	90.98650360107411	-237.9621734619141	1094.405395507812	121.828643798828	-105.2435836791992	628.9058837890625	-45.75193405151372	42.89918899536132	836.896728515625	86.25112915039057	28.3451118469238	897.7415771484375	193.1675262451171	-154.3370666503906	275.10888671875	-165.3907318115235	-194.650390625	607.2477416992188	93.94508361816399	-197.9197235107422	255.2704162597656	-121.376937866211	136.3561401367188	1082.644287109375	-171.7802124023438	191.9441070556641	1114.086669921875	-220.7315216064453	190.8779296875	1105.961547851562	250.49755859375	361.6072387695312	930.8848266601562	188.0269927978516	323.6557006835938	897.2377319335938	-224.1573791503907	277.319580078125	1406.141967773438	-17.50707626342778	183.7774200439453	1526.68603515625	-48.2053298950196	160.4229736328125	1544.901123046875	88.64271545410148	70.94934082031249	1372.503784179688	147.642364501953	62.59773635864259	1373.554809570312	-119.3989181518555	59.21736526489258	1306.914428710938	20.35849380493157	422.2705688476563	908.4020385742188	-255.8591613769531	433.5333862304687	895.1826782226562	278.357177734375	
701	5.833333333333333	255.408203125	1406.258178710938	106.3108520507812	-220.219955444336	613.4262084960938	170.8972167968749	-42.11746978759766	1168.791381835938	18.30091476440422	-124.6285247802734	284.6521606445312	-84.0146179199219	-91.42832183837889	696.0753784179688	-148.7461242675782	-203.3084869384766	1358.708862304688	19.15564346313466	151.4261932373047	1084.126220703125	202.0418548583984	330.8175048828124	908.2268676757812	251.6313171386718	28.91077232360839	1440.63916015625	27.10195732116691	-254.3424682617188	1092.461303710938	-106.8982086181642	31.44040679931642	173.4325256347656	-121.0367660522461	-91.10069274902345	465.3140869140625	146.0719909667968	361.1955871582031	936.3858642578125	-171.9843902587891	-394.743408203125	1152.484741210938	-40.47351455688489	-392.8630676269531	1155.136108398438	90.87542724609364	-238.2887268066407	1094.593627929688	121.6769180297851	-110.076789855957	626.087646484375	-45.9065666198731	45.93699645996093	844.1834716796875	85.37252044677729	30.54498291015623	905.0942993164062	192.2328338623046	-162.4032592773437	272.6438598632812	-165.3286285400391	-187.1523132324219	611.24658203125	94.68897247314446	-205.7680358886718	253.7308349609375	-120.7885360717774	136.3039093017578	1082.601318359375	-171.7484283447266	191.8711090087891	1114.021240234375	-220.7064208984375	190.7479248046875	1105.896484375	250.4224243164062	361.5746154785156	930.9151000976562	187.9589385986328	323.6658935546875	897.194091796875	-224.166259765625	277.3597412109375	1405.982543945312	-17.3607845306397	183.9384002685547	1526.5986328125	-48.14281463623054	160.5528411865234	1544.855102539062	88.71211242675773	71.02143096923827	1372.715209960938	147.815200805664	62.64768600463869	1373.569091796875	-119.2492446899415	59.26065444946289	1306.912109375	20.4485721588134	422.2456359863282	908.3865356445312	-255.8972320556641	433.4775390624999	895.2294311523438	278.313232421875	
702	5.841666666666667	255.3531036376953	1406.106201171875	106.4015884399413	-213.4118347167969	616.1209106445312	171.1200714111328	-42.03095245361328	1168.742065429688	18.42699241638176	-132.5105438232422	282.4395446777344	-83.989860534668	-95.6432647705078	693.4552612304688	-149.0480651855469	-203.3450927734375	1358.683715820312	19.07337760925282	151.2927856445312	1084.101196289062	201.9359588623047	330.7452392578124	908.2765502929688	251.5411376953125	28.89209938049316	1440.612182617188	27.10624504089347	-254.6424713134766	1092.339721679688	-107.1714248657228	23.11567115783693	169.1690979003906	-120.8992538452149	-81.92715454101564	470.6274719238281	146.2256317138672	361.1365051269531	936.3763427734375	-172.0315551757812	-394.9399719238281	1152.468383789062	-40.47491455078137	-392.984619140625	1155.249267578125	90.81204223632801	-238.6936950683594	1094.747802734375	121.6779785156249	-114.0958023071289	623.7473754882812	-46.21673202514653	47.00726318359374	852.1148071289062	84.55415344238276	32.35511398315428	912.0416870117188	191.2735595703124	-170.4859619140625	270.754150390625	-165.2240600585938	-180.8397369384766	614.3255615234375	94.54917144775384	-213.9659576416015	252.3960571289062	-120.4267883300782	136.2141571044922	1082.549682617188	-171.7000427246094	191.7808227539063	1113.978149414062	-220.6980743408203	190.6061401367187	1105.862060546875	250.3534240722656	361.5425109863281	930.9563598632812	187.8857574462891	323.8268127441406	897.164794921875	-224.0109100341797	277.3531799316406	1405.779907226562	-17.24565315246587	184.0584869384766	1526.49072265625	-48.15550994873054	160.6551818847656	1544.798706054688	88.71279144287101	71.05290222167967	1372.851196289062	147.9383850097655	62.64526367187501	1373.572387695312	-119.1294860839844	59.26414108276367	1306.893310546875	20.51857948303215	422.2054138183594	908.3833618164062	-255.9547424316406	433.4147033691406	895.2855224609375	278.2677917480469	
703	5.85	255.2625427246094	1405.951538085938	106.4389419555663	-206.5276947021485	618.1861572265625	171.3834381103515	-42.0548210144043	1168.6806640625	18.51950454711907	-140.4883728027344	280.7369079589844	-83.89456939697268	-99.3584747314453	691.1620483398438	-149.4302368164063	-203.4204559326172	1358.668090820312	18.99525833129872	151.1288604736328	1084.067260742188	201.8573150634765	330.6824340820312	908.3245849609375	251.4341583251953	28.84755897521972	1440.584228515625	27.08805656433097	-255.0316619873047	1092.2431640625	-107.4157180786134	12.69353103637697	165.6439361572266	-121.2500839233399	-72.96858215332033	474.7229614257812	145.676040649414	361.0417785644531	936.3837890625	-172.1086120605469	-395.2206420898438	1152.494995117188	-40.44398498535168	-393.1508178710938	1155.370849609375	90.8067169189452	-239.1953125	1094.875732421875	121.6538848876952	-117.2943115234375	621.8643798828125	-46.74401473999028	49.49172592163085	856.64453125	83.39344787597651	33.82302474975584	918.5484619140625	190.2292785644531	-178.7336120605468	269.4171447753906	-165.0681610107422	-174.7351379394531	616.7909545898438	94.43123626708977	-222.2658996582031	251.6024475097656	-120.0880661010743	136.7682495117188	1082.935180664062	-170.75537109375	191.641830444336	1113.928344726562	-220.7149963378907	190.4329071044922	1105.829345703125	250.2565612792968	361.490966796875	931.0233154296875	187.8164825439453	323.8487548828125	899.08837890625	-226.2038879394532	277.4534912109375	1405.612060546875	-17.06166076660161	184.1259918212891	1526.362426757812	-48.20646286010749	160.7294464111328	1544.732788085938	88.67910003662101	70.99349212646483	1372.934326171875	148.0112915039062	62.58771896362306	1373.551635742188	-119.0485382080079	59.23779678344727	1306.847534179688	20.57880973815911	422.1518859863282	908.3766479492188	-256.0211181640625	433.3339843749999	895.3333740234375	278.2126770019531	
